<svg width="44" height="50" viewBox="0 0 44 50" fill="none" xmlns="http://www.w3.org/2000/svg">
<path d="M10.7807 1.14679L10.7807 1.14679L11.9967 0.593495H22H32.0034L33.2229 1.1482C33.2229 1.1482 33.2229 1.14821 33.2229 1.14822C34.6101 1.77943 35.401 2.62505 35.9251 4.02942C36.0194 4.28238 36.1059 4.5075 36.1965 4.68948C36.2881 4.87355 36.4078 5.06437 36.5941 5.21303C36.7895 5.36905 37.004 5.43604 37.2094 5.4672C37.4 5.49613 37.6176 5.49852 37.8382 5.49852C40.0749 5.49852 41.3759 6.01498 42.174 7.13987C43.0173 8.32847 43.4065 10.3283 43.4065 13.5897V16.9245H42.2093C41.7037 16.9245 41.2357 16.9446 40.8864 16.9788C40.7151 16.9955 40.554 17.0173 40.426 17.0467C40.3667 17.0604 40.2823 17.0826 40.2003 17.1213C40.161 17.1399 40.0891 17.1773 40.0186 17.244C39.9529 17.3061 39.8403 17.4413 39.8251 17.6467C39.825 17.6473 39.8249 17.648 39.8248 17.6487C39.8233 17.6608 39.8209 17.6799 39.8172 17.7068C39.8101 17.7601 39.7993 17.8379 39.7849 17.9396C39.7563 18.1427 39.714 18.4372 39.6595 18.8135C39.5505 19.5659 39.3929 20.6429 39.1985 21.9651C38.8098 24.6093 38.2738 28.2326 37.6843 32.1967C37.619 32.6355 37.5556 33.0621 37.494 33.4769C36.3936 40.8824 35.8541 44.5138 35.3108 46.4329C35.0271 47.4347 34.7668 47.8714 34.4978 48.1317C34.2398 48.3812 33.9377 48.5154 33.3838 48.7612C33.3213 48.789 33.2555 48.8182 33.1862 48.8492C33.1862 48.8492 33.1862 48.8492 33.1861 48.8492L31.9403 49.4057L21.7076 49.3404L11.5005 49.2753L10.3799 48.6426C9.76154 48.2934 9.41312 48.0934 9.12443 47.7562C8.84033 47.4244 8.57848 46.9111 8.30271 45.8772C7.74782 43.7967 7.20992 39.9219 6.11333 32.0226L6.0986 31.9165C5.5681 28.0947 5.08584 24.5878 4.73624 22.0167C4.56142 20.731 4.41984 19.6798 4.322 18.9403C4.27306 18.5704 4.23519 18.2794 4.20961 18.0764C4.19679 17.9747 4.18726 17.8966 4.181 17.8423C4.176 17.799 4.17466 17.783 4.17447 17.783C4.16278 17.4295 3.90989 17.2338 3.75582 17.1523C3.59965 17.0698 3.41717 17.0275 3.25268 17.0009C2.91132 16.9455 2.42234 16.9245 1.7907 16.9245H0.593495V13.5897C0.593495 10.3028 0.981278 8.30687 1.8327 7.12614C2.63923 6.00767 3.96302 5.49852 6.26258 5.49852C6.50629 5.49852 6.73005 5.49565 6.92151 5.47296C7.11763 5.44973 7.32891 5.40099 7.52574 5.27678C7.72817 5.14903 7.85988 4.97682 7.95756 4.80292C8.04948 4.63927 8.12768 4.44324 8.20497 4.24113L8.20502 4.241C8.54541 3.3503 8.89193 2.71856 9.29344 2.24214C9.68897 1.77282 10.1583 1.43 10.7807 1.14679ZM39.8258 17.6405C39.826 17.6382 39.8262 17.6365 39.8263 17.6356C39.8265 17.6338 39.8264 17.6351 39.8258 17.6405ZM38.9656 10.059V9.47915L38.3858 9.46571L35.5343 9.39961L33.0958 9.34309L32.4283 7.39844L31.6266 5.06271L31.49 4.66472L31.0692 4.66191L22.124 4.60211L13.1784 4.54208L12.776 4.53938L12.6246 4.91216L11.6274 7.36631L11.6274 7.36634L10.7809 9.45014H8.404H5.62791H5.03441V10.0436V11.2115V12.3794V12.9729H5.62791H22H38.3721H38.9656V12.3794V11.2192V10.059Z" fill="#FF90E8" stroke="black" stroke-width="1.18699"/>
<path d="M19.8286 33.4316V34.606H18.7495V33.4189C17.9582 33.3174 17.2663 33.0339 16.6738 32.5684C16.0856 32.0986 15.6667 31.4596 15.417 30.6514L16.4834 30.0674C16.8558 31.3665 17.6112 32.1156 18.7495 32.3145V29.147C17.0145 28.745 16.147 27.869 16.147 26.519C16.147 25.9139 16.3882 25.3828 16.8706 24.9258C17.353 24.4688 17.9793 24.2021 18.7495 24.126V22.958H19.8286V24.1514C20.438 24.2529 20.9648 24.4836 21.4092 24.8433C21.8535 25.203 22.1794 25.6748 22.3867 26.2588L21.333 26.8301C21.0833 25.9837 20.5819 25.4632 19.8286 25.2686V28.2329C20.8104 28.4191 21.5319 28.7217 21.9932 29.1406C22.4544 29.5553 22.6851 30.0991 22.6851 30.772C22.6851 31.5041 22.4206 32.1092 21.8916 32.5874C21.3796 33.0614 20.6919 33.3428 19.8286 33.4316ZM18.7495 27.998V25.2178C18.3094 25.2601 17.9582 25.3997 17.6958 25.6367C17.4334 25.8695 17.3022 26.1593 17.3022 26.5063C17.3022 26.8787 17.4207 27.1834 17.6577 27.4204C17.8947 27.6532 18.2586 27.8457 18.7495 27.998ZM21.5298 30.8735C21.5298 30.4842 21.4007 30.1732 21.1426 29.9404C20.8844 29.7035 20.4465 29.5109 19.8286 29.3628V32.3398C20.3618 32.2848 20.7786 32.1261 21.0791 31.8638C21.3796 31.5972 21.5298 31.2671 21.5298 30.8735ZM25.8843 33.3301V26.0112C25.6981 26.4344 25.3913 26.7814 24.9639 27.0522C24.528 27.3273 24.09 27.4839 23.6499 27.522L23.4277 26.3604C24.1048 26.2884 24.6676 26.0705 25.1162 25.7065C25.5648 25.3384 25.8652 24.8454 26.0176 24.2275H27.0142V33.3301H25.8843Z" fill="black"/>
</svg>
